HIERARCHY
ROOT Hips
{
  OFFSET 196.326 95.9168 97.7182
  CHANNELS 6 Xposition Yposition Zposition Zrotation Xrotation Yrotation
  JOINT LeftUpLeg
  {
    OFFSET 8.64259 1.95398 -2.38835
    CHANNELS 3 Zrotation Xrotation Yrotation
    JOINT LeftLeg
    {
      OFFSET 43.7702 0 0
      CHANNELS 3 Zrotation Xrotation Yrotation
      JOINT LeftFoot
      {
        OFFSET 40.6238 0 0
        CHANNELS 3 Zrotation Xrotation Yrotation
        JOINT LeftToeBase
        {
          OFFSET 12.7242 0 0
          CHANNELS 3 Zrotation Xrotation Yrotation
          End Site
          {
            OFFSET 0 0 0
          }
        }
      }
    }
  }
  JOINT RightUpLeg
  {
    OFFSET -8.2249 1.95398 -2.59336
    CHANNELS 3 Zrotation Xrotation Yrotation
    JOINT RightLeg
    {
      OFFSET 43.5653 0 0
      CHANNELS 3 Zrotation Xrotation Yrotation
      JOINT RightFoot
      {
        OFFSET 40.6238 0 0
        CHANNELS 3 Zrotation Xrotation Yrotation
        JOINT RightToeBase
        {
          OFFSET 12.7242 0 0
          CHANNELS 3 Zrotation Xrotation Yrotation
          End Site
          {
            OFFSET 0 0 0
          }
        }
      }
    }
  }
  JOINT Spine
  {
    OFFSET 0.165834 0.87714 6.61349
    CHANNELS 3 Zrotation Xrotation Yrotation
    JOINT Spine1
    {
      OFFSET 7.38963 1.71661e-005 0
      CHANNELS 3 Zrotation Xrotation Yrotation
      JOINT Spine2
      {
        OFFSET 11.9445 1.14441e-005 0
        CHANNELS 3 Zrotation Xrotation Yrotation
        JOINT Spine3
        {
          OFFSET 14.7254 4.19617e-005 0
          CHANNELS 3 Zrotation Xrotation Yrotation
          JOINT Spine4
          {
            OFFSET 10.9679 0 0
            CHANNELS 3 Zrotation Xrotation Yrotation
            JOINT RightShoulder
            {
              OFFSET 2.46616 -1.6653 3.69651
              CHANNELS 3 Zrotation Xrotation Yrotation
              JOINT RightArm
              {
                OFFSET 13.0012 0 0
                CHANNELS 3 Zrotation Xrotation Yrotation
                JOINT RightForeArm
                {
                  OFFSET 28.7848 1.52588e-005 0
                  CHANNELS 3 Zrotation Xrotation Yrotation
                  JOINT RightHand
                  {
                    OFFSET 26.5688 1.52588e-005 0
                    CHANNELS 3 Zrotation Xrotation Yrotation
                    End Site
                    {
                      OFFSET 0 0 0
                    }
                  }
                }
              }
            }
            JOINT LeftShoulder
            {
              OFFSET 2.38034 -1.29275 -3.75231
              CHANNELS 3 Zrotation Xrotation Yrotation
              JOINT LeftArm
              {
                OFFSET 16.3182 6.10351e-005 0
                CHANNELS 3 Zrotation Xrotation Yrotation
                JOINT LeftForeArm
                {
                  OFFSET 27.0901 0 0
                  CHANNELS 3 Zrotation Xrotation Yrotation
                  JOINT LeftHand
                  {
                    OFFSET 24.5451 1.52588e-005 0
                    CHANNELS 3 Zrotation Xrotation Yrotation
                    End Site
                    {
                      OFFSET 0 0 0
                    }
                  }
                }
              }
            }
            JOINT Neck
            {
              OFFSET 5.0226 -0.0266342 0
              CHANNELS 3 Zrotation Xrotation Yrotation
              JOINT Head
              {
                OFFSET 6.69363 2.86102e-005 0
                CHANNELS 3 Zrotation Xrotation Yrotation
                End Site
                {
                  OFFSET 0 0 0
                }
              }
            }
          }
        }
      }
    }
  }
}
MOTION
Frames:	9
Frame Time:	0.0416667
11.1056 97.4989 -99.095 -59.3551 -83.3313 -61.322 -173.265 5.90889 88.7136 -7.22819 2.17828 0.185043 61.9248 9.00828 15.1534 20.296 -3.86019 -25.0428 175.233 9.85142 84.5565 -13.5854 -5.75715 -0.171415 64.8213 -1.79264 -0.937419 32.6308 -0.322658 19.0112 0.168659 6.72535 -89.872 13.4229 0.396594 0.205621 1.75196 0.405256 0.18795 -20.7834 0.316462 0.315301 -0.770751 0.316457 0.315289 81.2391 -49.9849 -114.062 27.915 -12.4625 3.82994 -8.54407 -19.4748 -37.4843 -5.23732 -0.508461 3.09763 -100.848 -43.8394 60.2977 -30.3024 10.8968 2.04674 5.92555 13.1756 -33.7431 6.32129 0.755936 6.73117 7.51899 3.54043 2.51927 2.06632 3.09909 1.7835 
11.0781 97.4911 -99.0276 -59.5477 -83.1569 -61.4656 -172.727 5.95207 89.0383 -7.2261 3.35702 -0.401802 62.1436 9.51816 15.8087 17.5329 -6.02359 -24.4483 175.274 9.36069 84.5899 -12.6133 -4.96376 -0.226216 64.9957 -1.89577 -0.998821 32.0582 -0.497836 20.2195 0.231233 6.74526 -89.8988 13.3832 0.507805 0.138127 1.71229 0.513386 0.115639 -20.8234 0.44281 0.284358 -0.810791 0.442807 0.284354 81.7908 -49.594 -113.386 28.3808 -12.5667 3.81222 -7.77882 -17.4482 -37.6327 -5.919 -0.488791 1.93783 -101.358 -43.9652 59.5732 -29.995 10.6255 1.82176 5.50467 12.3722 -33.1109 6.56366 0.62244 4.74165 8.09329 3.47152 2.32435 1.97043 3.1076 2.46692 
11.1828 97.4267 -99.0676 -58.8189 -83.3044 -60.7696 -172.286 6.11786 89.1705 -7.44845 5.0194 -1.03036 61.7079 10.2755 17.1811 22.7736 -3.15367 -18.3156 175.474 9.11807 84.5732 -12.3616 -4.21619 -0.495093 65.23 -1.90785 -0.991011 32.4749 -0.403959 20.4555 0.252282 6.77738 -89.9091 13.319 0.544556 0.113331 1.64814 0.549017 0.0892425 -20.8877 0.48532 0.271755 -0.875094 0.485317 0.271749 82.1092 -49.3947 -112.984 28.767 -12.5983 4.31316 -8.74481 -16.7073 -40.2718 -6.05338 -0.514482 2.60125 -101.891 -44.0903 58.818 -29.7998 9.88555 2.30775 4.84124 10.3692 -32.813 6.57936 0.494417 3.07773 8.83256 3.23725 1.47392 1.61097 3.12409 3.67838 
11.4791 97.4128 -99.2599 -58.2185 -83.8094 -60.3739 -171.977 6.98819 89.075 -9.53033 5.06556 -1.40264 60.3196 8.06062 15.0834 39.9541 11.3615 -10.8371 175.907 8.75988 84.4502 -11.9905 -3.29535 -1.1676 64.8826 -1.8384 -0.950307 33.6937 -0.111986 20.7132 0.250562 6.82538 -89.9355 13.2231 0.528413 0.0629362 1.55222 0.530682 0.0396099 -20.9837 0.485062 0.218836 -0.971026 0.485074 0.218837 82.4819 -48.6698 -112.69 29.3275 -13.2889 5.28931 -9.57395 -15.7914 -44.0553 -6.14532 -0.60064 4.64594 -103.039 -44.3219 57.1882 -29.6946 8.75093 3.52461 3.2064 6.31663 -31.9875 6.17562 0.346789 1.44446 9.15471 2.79167 1.02077 1.60313 2.8158 4.16909 
11.8533 97.2163 -99.6748 -63.9434 -84.0995 -66.9337 -171.434 6.71209 88.5007 -10.4735 5.16319 -2.16955 60.6721 10.3923 17.8708 43.9662 14.9984 -11.096 176.087 9.40918 83.6343 -13.9708 -3.37505 -1.87956 65.6756 -1.94735 -0.998625 35.3865 0.306331 20.6678 0.199481 6.96285 -89.883 12.9479 0.452265 0.179026 1.27702 0.459699 0.158938 -21.2585 0.377539 0.306663 -1.24586 0.377541 0.306666 82.7486 -47.9813 -112.54 29.1796 -16.4607 5.1625 -11.4577 -15.9131 -47.7795 -9.70525 -0.881946 5.13454 -103.507 -44.3794 56.5112 -29.8307 8.2163 4.71733 -0.773064 -1.84455 -29.6451 8.00042 0.215699 -0.997176 9.34409 2.44744 -0.607787 2.29434 2.99117 5.80752 
12.4496 97.0567 -100.197 -66.6225 -83.8614 -69.5911 -171.068 8.42409 88.5096 -14.6507 3.55843 -2.07382 62.6617 11.7833 17.4199 44.0845 15.1305 -10.9299 176.405 10.2357 83.4229 -15.0147 -3.52724 -2.3055 64.8448 -1.75262 -0.894994 43.9026 2.0953 16.8784 0.12351 7.08957 -89.9287 12.6948 0.27942 0.109605 1.02382 0.283974 0.0972042 -21.5115 0.233556 0.188513 -1.49883 0.233559 0.188513 83.8104 -47.0053 -111.261 27.8222 -22.4787 3.30706 -13.1801 -16.062 -53.283 -13.6076 -1.2006 5.50364 -104.205 -44.0726 55.3208 -30.1989 6.07985 6.40072 -2.40867 -7.94117 -27.2073 8.14718 0.077866 -2.51589 9.695 2.06577 -3.22761 3.24722 3.46056 8.16791 
13.1526 96.7569 -100.874 -66.498 -82.691 -69.2123 -170.681 11.0873 88.8627 -19.37 2.29169 -1.88257 63.5032 12.4863 17.7607 44.8223 15.9374 -10.0629 177.237 12.305 83.5309 -17.0066 -4.1551 -2.98837 64.5541 -1.80496 -0.936733 54.1373 3.62028 12.5232 -0.00112341 7.23258 -90.0487 12.4089 -0.0253833 -0.0948286 0.737934 -0.0295334 -0.0936324 -21.7972 0.00428187 -0.0980814 -1.78456 0.00428986 -0.0980815 85.5477 -45.6755 -109.001 23.8261 -30.4505 -1.8123 -15.6274 -14.6689 -59.2069 -13.3047 -1.17559 5.48681 -104.701 -43.8345 54.4652 -30.5415 3.19355 8.15811 -2.51613 -12.7271 -24.7416 7.45675 -0.0304115 -3.65582 9.79639 2.30973 -5.8201 4.67951 4.65072 10.7482 
13.8355 96.2453 -101.868 -69.0335 -81.0654 -72.0452 -170.333 13.6571 89.186 -24.369 1.83213 -1.82905 63.812 12.2729 16.8968 45.8428 17.3519 -7.4593 178.622 15.8449 83.381 -21.7664 -4.2596 -4.27551 65.4142 -2.17427 -1.15113 57.1905 3.90035 11.2679 -0.215102 7.46385 -90.1324 11.9457 -0.49003 -0.211236 0.274823 -0.498853 -0.189473 -22.2607 -0.403892 -0.348753 -2.24806 -0.403899 -0.348751 87.493 -44.409 -106.29 16.059 -38.5726 -11.1416 -18.2864 -11.1482 -65.8814 -11.5852 -0.966594 4.52671 -105.423 -43.8298 53.3844 -30.3063 -0.314685 10.5514 -1.12978 -15.5266 -22.6869 5.28041 -0.0172145 -3.25113 9.90391 2.84256 -7.50928 6.40505 5.93607 12.5686 
14.4099 95.5317 -102.803 -71.9344 -79.0536 -74.8859 -169.781 16.2278 90.4459 -29.7464 2.29102 -1.79129 64.1059 12.3279 16.6789 46.1583 17.7894 -6.74739 -178.854 19.7427 83.8328 -27.6475 -2.55206 -6.38632 65.9202 -2.51862 -1.33938 55.7746 3.63461 11.1011 -0.384578 7.70657 -90.1743 11.4599 -0.846559 -0.261138 -0.210784 -0.857222 -0.223631 -22.7475 -0.728933 -0.503492 -2.73481 -0.728934 -0.503507 88.5423 -43.4865 -104.856 6.00246 -44.0574 -22.4186 -21.5892 -7.56211 -72.1635 -10.2151 -0.869399 4.48996 -105.751 -43.3591 52.6616 -29.1316 -3.07088 13.3615 0.180499 -18.4705 -20.5731 1.56735 -0.0756189 -3.93639 9.16995 3.47 -8.2105 8.60917 6.93174 12.7549 
